<svg width="138" height="60" viewBox="0 0 138 60" fill="none" xmlns="http://www.w3.org/2000/svg">
<path d="M52 29.5588C52 40.0522 35.7981 48 25.1667 48C14.5352 48 9.99998 40.0522 9.99998 29.5588C9.99998 19.0654 24.4518 10 35.0833 10C45.7148 10 52 19.0654 52 29.5588Z" fill="#F9F9F9"/>
<path d="M30.8558 18.6979C31.7687 16.2326 32.2251 15 33.01 15C33.7949 15 34.2513 16.2326 35.1642 18.6979L35.2066 18.8127C35.7224 20.2054 35.9802 20.9018 36.5058 21.325C37.0313 21.7483 37.7212 21.8152 39.101 21.9491L39.3503 21.9733C41.6084 22.1924 42.7376 22.3019 42.9791 23.08C43.2207 23.8582 42.3823 24.6846 40.7052 26.3373L40.1456 26.8889C39.2967 27.7255 38.8722 28.1439 38.6743 28.6921C38.6374 28.7945 38.6068 28.8992 38.5826 29.0058C38.4525 29.5774 38.5768 30.1842 38.8254 31.398L38.9027 31.7758C39.3596 34.0064 39.588 35.1216 39.1893 35.6027C39.0401 35.7825 38.8465 35.9119 38.6313 35.9755C38.0555 36.1457 37.2379 35.4241 35.6028 33.9808C34.5291 33.033 33.9923 32.5592 33.376 32.4526C33.1335 32.4106 32.8865 32.4106 32.644 32.4526C32.0277 32.5592 31.4908 33.033 30.4172 33.9808C28.7821 35.4241 27.9646 36.1457 27.3887 35.9755C27.1736 35.9119 26.9799 35.7825 26.8308 35.6027C26.432 35.1216 26.6604 34.0064 27.1173 31.7758L27.1946 31.398C27.4432 30.1842 27.5675 29.5774 27.4375 29.0058C27.4132 28.8992 27.3825 28.7945 27.3456 28.6921C27.1478 28.1439 26.7234 27.7255 25.8744 26.8889L25.3148 26.3373C23.6378 24.6846 22.7993 23.8582 23.0409 23.08C23.2825 22.3019 24.4115 22.1924 26.6697 21.9733L26.9191 21.9491C28.2988 21.8152 28.9887 21.7483 29.5142 21.325C30.0398 20.9018 30.2976 20.2054 30.8133 18.8127L30.8558 18.6979Z" stroke="#48CAE4" stroke-width="2.67"/>
<rect x="32" y="25" width="13" height="13" fill="#F9F9F9"/>
<rect x="23" y="32" width="11" height="12" fill="#F9F9F9"/>
<rect x="41.9397" y="23.0175" width="2.69473" height="2.35378" transform="rotate(45.5 41.9397 23.0175)" fill="#48CAE4"/>
<path d="M26.3293 28.9151L28.3022 30.888L26.888 32.3022L24.9151 30.3293L26.3293 28.9151Z" fill="#48CAE4"/>
<rect x="30.7679" y="28.2324" width="3.57987" height="13.0431" transform="rotate(45 30.7679 28.2324)" fill="#F9F9F9"/>
<rect x="38.7351" y="31.2146" width="2.67" height="8.2942" rx="1.335" transform="rotate(45 38.7351 31.2146)" fill="#48CAE4"/>
<rect x="26.2426" y="29" width="2.67" height="8.51075" rx="1.335" transform="rotate(45 26.2426 29)" fill="#48CAE4"/>
<rect x="41.9615" y="22.9615" width="2.7" height="23.9872" rx="1.35" transform="rotate(45 41.9615 22.9615)" fill="#48CAE4"/>
<rect x="28.7286" y="31.2211" width="2.67" height="14.3152" rx="1.335" transform="rotate(45 28.7286 31.2211)" fill="#48CAE4"/>
<path d="M65.175 37.15C63.7583 37.15 62.5083 36.8583 61.425 36.275C60.3583 35.6917 59.525 34.8917 58.925 33.875C58.3417 32.8583 58.05 31.6917 58.05 30.375C58.05 29.0583 58.3333 27.8917 58.9 26.875C59.4833 25.8583 60.275 25.0667 61.275 24.5C62.2917 23.9167 63.4333 23.625 64.7 23.625C65.9833 23.625 67.1167 23.9083 68.1 24.475C69.0833 25.0417 69.85 25.8417 70.4 26.875C70.9667 27.8917 71.25 29.0833 71.25 30.45C71.25 30.55 71.2417 30.6667 71.225 30.8C71.225 30.9333 71.2167 31.0583 71.2 31.175H59.925V29.45H69.95L68.975 30.05C68.9917 29.2 68.8167 28.4417 68.45 27.775C68.0833 27.1083 67.575 26.5917 66.925 26.225C66.2917 25.8417 65.55 25.65 64.7 25.65C63.8667 25.65 63.125 25.8417 62.475 26.225C61.825 26.5917 61.3167 27.1167 60.95 27.8C60.5833 28.4667 60.4 29.2333 60.4 30.1V30.5C60.4 31.3833 60.6 32.175 61 32.875C61.4167 33.5583 61.9917 34.0917 62.725 34.475C63.4583 34.8583 64.3 35.05 65.25 35.05C66.0333 35.05 66.7417 34.9167 67.375 34.65C68.025 34.3833 68.5917 33.9833 69.075 33.45L70.4 35C69.8 35.7 69.05 36.2333 68.15 36.6C67.2667 36.9667 66.275 37.15 65.175 37.15ZM74.5826 37V18.45H76.9826V37H74.5826ZM85.365 37.15C84.265 37.15 83.215 37 82.215 36.7C81.2317 36.4 80.4567 36.0333 79.89 35.6L80.89 33.7C81.4567 34.0833 82.1567 34.4083 82.99 34.675C83.8234 34.9417 84.6734 35.075 85.54 35.075C86.6567 35.075 87.4567 34.9167 87.94 34.6C88.44 34.2833 88.69 33.8417 88.69 33.275C88.69 32.8583 88.54 32.5333 88.24 32.3C87.94 32.0667 87.54 31.8917 87.04 31.775C86.5567 31.6583 86.015 31.5583 85.415 31.475C84.815 31.375 84.215 31.2583 83.615 31.125C83.015 30.975 82.465 30.775 81.965 30.525C81.465 30.2583 81.065 29.9 80.765 29.45C80.465 28.9833 80.315 28.3667 80.315 27.6C80.315 26.8 80.54 26.1 80.99 25.5C81.44 24.9 82.0734 24.4417 82.89 24.125C83.7234 23.7917 84.7067 23.625 85.84 23.625C86.7067 23.625 87.5817 23.7333 88.465 23.95C89.365 24.15 90.0984 24.4417 90.665 24.825L89.64 26.725C89.04 26.325 88.415 26.05 87.765 25.9C87.115 25.75 86.465 25.675 85.815 25.675C84.765 25.675 83.9817 25.85 83.465 26.2C82.9484 26.5333 82.69 26.9667 82.69 27.5C82.69 27.95 82.84 28.3 83.14 28.55C83.4567 28.7833 83.8567 28.9667 84.34 29.1C84.84 29.2333 85.39 29.35 85.99 29.45C86.59 29.5333 87.19 29.65 87.79 29.8C88.39 29.9333 88.9317 30.125 89.415 30.375C89.915 30.625 90.315 30.975 90.615 31.425C90.9317 31.875 91.09 32.475 91.09 33.225C91.09 34.025 90.8567 34.7167 90.39 35.3C89.9234 35.8833 89.265 36.3417 88.415 36.675C87.565 36.9917 86.5484 37.15 85.365 37.15ZM98.6395 37.15C97.3061 37.15 96.2728 36.7917 95.5395 36.075C94.8061 35.3583 94.4395 34.3333 94.4395 33V20.85H96.8395V32.9C96.8395 33.6167 97.0145 34.1667 97.3645 34.55C97.7311 34.9333 98.2478 35.125 98.9145 35.125C99.6645 35.125 100.289 34.9167 100.789 34.5L101.539 36.225C101.173 36.5417 100.731 36.775 100.214 36.925C99.7145 37.075 99.1895 37.15 98.6395 37.15ZM92.1895 25.725V23.75H100.639V25.725H92.1895ZM112.666 37V34.2L112.541 33.675V28.9C112.541 27.8833 112.241 27.1 111.641 26.55C111.058 25.9833 110.174 25.7 108.991 25.7C108.208 25.7 107.441 25.8333 106.691 26.1C105.941 26.35 105.308 26.6917 104.791 27.125L103.791 25.325C104.474 24.775 105.291 24.3583 106.241 24.075C107.208 23.775 108.216 23.625 109.266 23.625C111.083 23.625 112.483 24.0667 113.466 24.95C114.449 25.8333 114.941 27.1833 114.941 29V37H112.666ZM108.316 37.15C107.333 37.15 106.466 36.9833 105.716 36.65C104.983 36.3167 104.416 35.8583 104.016 35.275C103.616 34.675 103.416 34 103.416 33.25C103.416 32.5333 103.583 31.8833 103.916 31.3C104.266 30.7167 104.824 30.25 105.591 29.9C106.374 29.55 107.424 29.375 108.741 29.375H112.941V31.1H108.841C107.641 31.1 106.833 31.3 106.416 31.7C105.999 32.1 105.791 32.5833 105.791 33.15C105.791 33.8 106.049 34.325 106.566 34.725C107.083 35.1083 107.799 35.3 108.716 35.3C109.616 35.3 110.399 35.1 111.066 34.7C111.749 34.3 112.241 33.7167 112.541 32.95L113.016 34.6C112.699 35.3833 112.141 36.0083 111.341 36.475C110.541 36.925 109.533 37.15 108.316 37.15ZM119.382 37V23.75H121.682V27.35L121.457 26.45C121.824 25.5333 122.441 24.8333 123.307 24.35C124.174 23.8667 125.241 23.625 126.507 23.625V25.95C126.407 25.9333 126.307 25.925 126.207 25.925C126.124 25.925 126.041 25.925 125.957 25.925C124.674 25.925 123.657 26.3083 122.907 27.075C122.157 27.8417 121.782 28.95 121.782 30.4V37H119.382Z" fill="white"/>
</svg>
