<svg width="43" height="38" viewBox="0 0 43 38" fill="none" xmlns="http://www.w3.org/2000/svg">
<path d="M42.3768 19.5588C42.3768 30.0522 26.0575 38 15.3491 38C4.64053 38 0.0724487 30.0522 0.0724487 19.5588C0.0724487 9.0654 14.629 0 25.3375 0C36.0461 0 42.3768 9.0654 42.3768 19.5588Z" fill="#48CAE4"/>
<path d="M21.0794 8.6979C21.9989 6.2326 22.4586 5 23.2492 5C24.0398 5 24.4995 6.2326 25.419 8.6979L25.4617 8.8127C25.9813 10.2054 26.2409 10.9018 26.7703 11.325C27.2996 11.7483 27.9945 11.8152 29.3843 11.9491L29.6354 11.9733C31.9099 12.1924 33.0473 12.3019 33.2905 13.08C33.5339 13.8582 32.6894 14.6846 31.0002 16.3373L30.4365 16.8889C29.5815 17.7255 29.1539 18.1439 28.9545 18.6921C28.9174 18.7945 28.8866 18.8992 28.8622 19.0058C28.7311 19.5774 28.8563 20.1842 29.1067 21.398L29.1846 21.7758C29.6448 24.0064 29.8749 25.1216 29.4733 25.6027C29.323 25.7825 29.128 25.9119 28.9112 25.9755C28.3313 26.1457 27.5077 25.4241 25.8608 23.9808C24.7793 23.033 24.2386 22.5592 23.6179 22.4526C23.3736 22.4106 23.1248 22.4106 22.8805 22.4526C22.2598 22.5592 21.719 23.033 20.6376 23.9808C18.9907 25.4241 18.1672 26.1457 17.5872 25.9755C17.3705 25.9119 17.1754 25.7825 17.0252 25.6027C16.6235 25.1216 16.8536 24.0064 17.3138 21.7758L17.3917 21.398C17.6421 20.1842 17.7673 19.5774 17.6363 19.0058C17.6118 18.8992 17.5809 18.7945 17.5438 18.6921C17.3445 18.1439 16.917 17.7255 16.0619 16.8889L15.4982 16.3373C13.8091 14.6846 12.9645 13.8582 13.2079 13.08C13.4512 12.3019 14.5884 12.1924 16.863 11.9733L17.1142 11.9491C18.5039 11.8152 19.1988 11.7483 19.7281 11.325C20.2575 10.9018 20.5171 10.2054 21.0366 8.8127L21.0794 8.6979Z" stroke="white" stroke-width="2.67"/>
<path d="M35.3261 15H22.2319V28H35.3261V15Z" fill="#48CAE4"/>
<path d="M24.2464 22H13.1667V34H24.2464V22Z" fill="#48CAE4"/>
<path d="M34.1461 14.9395L32.2436 13.0175L30.5526 14.6673L32.4551 16.5893L34.1461 14.9395Z" fill="white"/>
<path d="M16.5201 18.9151L18.5073 20.888L17.0828 22.3022L15.0956 20.3293L16.5201 18.9151Z" fill="white"/>
<path d="M23.5405 20.7637L20.9908 18.2324L11.7011 27.4553L14.2508 29.9866L23.5405 20.7637Z" fill="#48CAE4"/>
<path d="M29.9666 24.0466C30.4917 23.5252 30.4917 22.6799 29.9666 22.1586C29.4415 21.6372 28.5901 21.6372 28.065 22.1586L24.0592 26.1355C23.5341 26.6568 23.5341 27.5021 24.0592 28.0235C24.5843 28.5448 25.4358 28.5448 25.9609 28.0235L29.9666 24.0466Z" fill="white"/>
<path d="M17.3836 21.832C17.9087 21.3106 17.9087 20.4653 17.3836 19.944C16.8585 19.4226 16.0071 19.4226 15.4819 19.944L11.322 24.074C10.7969 24.5954 10.7969 25.4406 11.322 25.962C11.8471 26.4833 12.6985 26.4833 13.2236 25.962L17.3836 21.832Z" fill="white"/>
<path d="M33.2271 15.8253C33.7581 15.2981 33.7581 14.4433 33.2271 13.9161C32.696 13.3889 31.8351 13.3889 31.3041 13.9161L16.1427 28.9684C15.6116 29.4956 15.6116 30.3504 16.1427 30.8776C16.6737 31.4048 17.5347 31.4048 18.0657 30.8776L33.2271 15.8253Z" fill="white"/>
<path d="M19.8876 24.0531C20.4127 23.5317 20.4127 22.6864 19.8876 22.1651C19.3625 21.6437 18.5111 21.6437 17.9859 22.1651L9.69187 30.3995C9.16674 30.9208 9.16674 31.7661 9.69187 32.2875C10.217 32.8088 11.0684 32.8088 11.5935 32.2875L19.8876 24.0531Z" fill="white"/>
</svg>
